<?xml version="1.0" encoding="UTF-8"?>
<svg width="326px" height="229px" viewBox="0 0 326 229" version="1.1" xmlns="http://www.w3.org/2000/svg" xmlns:xlink="http://www.w3.org/1999/xlink">
    <g id="Page-1" stroke="none" stroke-width="1" fill="none" fill-rule="evenodd">
        <g id="08a_Game-Copy-4" transform="translate(-266.000000, -114.000000)">
            <g id="Group-7" transform="translate(266.000000, 114.000000)">
                <circle id="Oval" fill-opacity="0.2" fill="#FFFFFF" cx="252" cy="34" r="4"></circle>
                <g id="Group-5" transform="translate(0.000000, 114.000000)">
                    <g id="Group-8">
                        <circle id="Oval-Copy" fill-opacity="0.2" fill="#FFFFFF" cx="73" cy="34" r="4"></circle>
                        <path d="M73,38 L73,38 C77.418278,38 81,41.581722 81,46 L81,55 C81,55.5522847 80.5522847,56 80,56 L78.0343681,56 L78.0343681,60.2805034 C78.0343681,60.8327882 77.5866529,61.2805034 77.0343681,61.2805034 L76.0417256,61.2805034 C75.4894409,61.2805034 75.0417256,60.8327882 75.0417256,60.2805034 L75.0417256,56 L70.9885018,56 L70.9885018,60.2805034 C70.9885018,60.8327882 70.5407865,61.2805034 69.9885018,61.2805034 L69.1531021,61.2805034 C68.6008173,61.2805034 68.1531021,60.8327882 68.1531021,60.2805034 L68.1531021,56 L66,56 C65.4477153,56 65,55.5522847 65,55 L65,46 C65,41.581722 68.581722,38 73,38 Z" id="Rectangle-Copy-4" fill="#D8D8D8" opacity="0.2"></path>
                        <rect id="Rectangle-Copy-2" stroke="#FFFFFF" x="0.5" y="0.5" width="145.691176" height="74" rx="4"></rect>
                        <circle id="Oval-Copy-2" stroke="#FFFFFF" opacity="0.4" cx="78" cy="22" r="6"></circle>
                        <circle id="Oval" stroke="#FFFFFF" fill="#49496F" cx="68" cy="22" r="6"></circle>
                        <text id="1" font-family="Futura" font-size="7" font-weight="400" fill="#FFFFFF">
                            <tspan x="66" y="24">1</tspan>
                        </text>
                        <text id="2" opacity="0.4" font-family="Futura" font-size="7" font-weight="400" fill="#FFFFFF">
                            <tspan x="76" y="24">2</tspan>
                        </text>
                        <circle id="Oval" stroke="#FFFFFF" stroke-width="2" cx="74" cy="51" r="5"></circle>
                        <path d="M88.6727273,63.3818182 C88.6727273,62.1818182 87.6909091,61.2 86.4545455,61.2 C85.6545455,61.2 84.9636364,61.6 84.6,62.2545455 L84.6,62.1818182 C84.6,60.9818182 83.6181818,59.9636364 82.3818182,59.9636364 C81.5818182,59.9636364 80.8909091,60.3636364 80.5272727,60.9818182 L80.5272727,60.9454545 C80.5272727,59.7454545 79.5454545,58.7272727 78.3090909,58.7272727 C77.5090909,58.7272727 76.8181818,59.1272727 76.4545455,59.7454545 L76.4545455,52.3636364 C76.4545455,51.7818182 76.2363636,51.2 75.8,50.8 C75.4,50.4 74.8181818,50.1454545 74.2363636,50.1454545 C74.2363636,50.1454545 74.2363636,50.1454545 74.2363636,50.1454545 C73.0363636,50.1454545 72.0545455,51.1272727 72.0545455,52.3636364 L72.0545455,66 C72.0545455,66.1454545 71.9818182,66.2181818 71.8727273,66.2909091 C71.7636364,66.3272727 71.6181818,66.3272727 71.5454545,66.2181818 L69.2909091,64 C68.5272727,63.2363636 67.3636364,63.1272727 66.4545455,63.7454545 C65.9454545,64.1090909 65.5818182,64.6545455 65.5090909,65.2727273 C65.4363636,65.8909091 65.5818182,66.5454545 66.0181818,67.0181818 L71.5818182,73.7454545 C73.1454545,75.6727273 75.4727273,76.7636364 77.9454545,76.7636364 L81.4,76.7636364 C83.3272727,76.7636364 85.1818182,76 86.5272727,74.6181818 C87.9090909,73.2363636 88.6727273,71.4181818 88.6727273,69.4909091 L88.6727273,63.3818182 Z" id="Path" stroke="#FFFFFF" fill="#4E5378"></path>
                    </g>
                </g>
                <g id="Group-9">
                    <path d="M4,0.5 C2.06700338,0.5 0.5,2.06700338 0.5,4 L0.5,71 C0.5,72.9329966 2.06700338,74.5 4,74.5 L29.0349572,74.5 C30.1581138,74.5 31.2406748,74.9200128 32.0699481,75.6775162 C33.1997401,76.7095511 34.4396219,77.3474973 35.7969896,77.5992963 C37.3578242,77.8888395 39.9309659,77.978588 43.4995598,77.8635739 C44.4602485,77.8326059 45.3270683,77.2787034 45.758779,76.4199207 C46.3504968,75.2428429 47.5553472,74.5 48.8727849,74.5 L142.691176,74.5 C144.624173,74.5 146.191176,72.9329966 146.191176,71 L146.191176,4 C146.191176,2.06700338 144.624173,0.5 142.691176,0.5 L4,0.5 Z" id="Rectangle" stroke="#FFFFFF"></path>
                    <path d="M6,40 L64,40 C64.5522847,40 65,40.4477153 65,41 L65,69 C65,69.5522847 64.5522847,70 64,70 L8,70 C6.34314575,70 5,68.6568542 5,67 L5,41 C5,40.4477153 5.44771525,40 6,40 Z" id="Rectangle" fill-opacity="0.2" fill="#FFFFFF"></path>
                    <path d="M45.5294118,63.3529412 C44.7941176,63.3529412 44.1470588,63.7352941 43.7941176,64.3235294 L43.7941176,64.2647059 C43.7941176,63.1176471 42.8823529,62.2058824 41.7352941,62.2058824 C41,62.2058824 40.3529412,62.5882353 40,63.1764706 L40,63.1176471 C40,61.9705882 39.0882353,61.0588235 37.9411765,61.0588235 C37.2058824,61.0588235 36.5588235,61.4411765 36.2058824,62.0294118 L36.2058824,55.1470588 C36.2058824,54.5882353 36,54.0882353 35.5882353,53.7058824 C35.2058824,53.3235294 34.6764706,53.1176471 34.1470588,53.1176471 C34.1470588,53.1176471 34.1470588,53.1176471 34.1470588,53.1176471 C33.0294118,53.1176471 32.0882353,54.0294118 32.0882353,55.1764706 L32.0882353,67.8823529 C32.0882353,68 32.0294118,68.0882353 31.9117647,68.1470588 C31.7941176,68.2058824 31.6764706,68.1764706 31.5882353,68.0882353 L29.5,66 C28.7941176,65.2941176 27.6764706,65.2058824 26.8529412,65.7647059 C26.3529412,66.0882353 26.0294118,66.6176471 25.9705882,67.2058824 C25.8823529,67.7941176 26.0588235,68.3823529 26.4411765,68.8235294 L31.6176471,75.0588235 C33.0882353,76.8529412 35.2647059,77.8529412 37.5588235,77.8529412 L40.7941176,77.8529412 C42.6176471,77.8529412 44.2941176,77.1470588 45.5882353,75.8823529 C46.8823529,74.6176471 47.5588235,72.9117647 47.5588235,71.0882353 L47.5588235,65.4117647 C47.5882353,64.2941176 46.6470588,63.3529412 45.5294118,63.3529412 Z" id="Path" stroke="#FFFFFF" fill="#4E5378"></path>
                    <path d="M25.4296675,55.4296675 L28.3452685,55.4296675 L28.3452685,54.4578005 L25.4296675,54.4578005 L25.4296675,53 L23.1943734,54.5549872 C23.0971867,54.6521739 23,54.797954 23,54.943734 C23,55.0895141 23.0971867,55.2352941 23.1943734,55.3324808 L25.4296675,56.887468 L25.4296675,55.4296675 Z" id="Path" fill="#FFFFFF"></path>
                    <path d="M45.1585678,54.5549872 L42.9232737,53 L42.9232737,54.4578005 L40.0076726,54.4578005 L40.0076726,55.4296675 L42.9232737,55.4296675 L42.9232737,56.887468 L45.1585678,55.3324808 C45.2557545,55.2352941 45.3529412,55.0895141 45.3529412,54.943734 C45.3529412,54.797954 45.2557545,54.6521739 45.1585678,54.5549872 Z" id="Path" fill="#FFFFFF"></path>
                </g>
                <text id="Déplacement" font-family="Futura" font-size="14" font-weight="400" fill="#FFFFFF">
                    <tspan x="30.5366211" y="95">Déplacement</tspan>
                </text>
                <text id="Changement-d’arme" font-family="Futura" font-size="14" font-weight="400" fill="#FFFFFF">
                    <tspan x="36.4960938" y="209">Changement </tspan>
                    <tspan x="53.7910156" y="228">d’arme</tspan>
                </text>
                <text id="Attaque" font-family="Futura" font-size="14" font-weight="400" fill="#FFFFFF">
                    <tspan x="227.405273" y="96">Attaque</tspan>
                </text>
                <text id="Zoom/Dézoom" font-family="Futura" font-size="14" font-weight="400" fill="#FFFFFF">
                    <tspan x="230.046387" y="209">Zoom/</tspan>
                    <tspan x="225.288574" y="228">Dézoom</tspan>
                </text>
                <rect id="Rectangle-Copy" stroke="#FFFFFF" x="179.5" y="0.5" width="145.691176" height="74" rx="4"></rect>
                <rect id="Rectangle-Copy-3" stroke="#FFFFFF" x="179.5" y="114.5" width="145.691176" height="74" rx="4"></rect>
                <g id="Group-14" transform="translate(23.000000, 53.000000)"></g>
                <rect id="Rectangle" fill-opacity="0.2" fill="#D8D8D8" x="180" y="122" width="146" height="59"></rect>
                <g id="noun_Pinch_1028295" transform="translate(257.000000, 145.000000)" fill="#FFFFFF">
                    <path d="M1.98449612,17.8217054 C1.98449612,18.0957072 2.20661842,18.3178295 2.48062016,18.3178295 C2.75462189,18.3178295 2.97674419,18.0957072 2.97674419,17.8217054 L2.97674419,12.3221705 L4.11534884,13.4607752 C4.30920507,13.6546314 4.6235081,13.6546314 4.81736433,13.4607752 C5.01122055,13.266919 5.01122056,12.9526159 4.81736434,12.7587597 L2.48062016,10.4220155 L0.146356589,12.7587597 C-0.0474996393,12.9526159 -0.0474996393,13.266919 0.146356589,13.4607752 C0.340212818,13.6546314 0.654515865,13.6546314 0.848372093,13.4607752 L1.98449612,12.3221705 L1.98449612,17.8217054 Z" id="Path"></path>
                    <path d="M2.48062016,8.84930233 L4.81488372,6.51503876 C4.94028671,6.38963577 4.98926216,6.20685693 4.94336148,6.03555325 C4.89746079,5.86424958 4.7636574,5.73044618 4.59235372,5.6845455 C4.42105005,5.63864482 4.23827121,5.68762026 4.11286822,5.81302326 L2.97674419,6.94914729 L2.97674419,1.4496124 C2.97674419,1.17561067 2.75462189,0.953488372 2.48062016,0.953488372 C2.20661842,0.953488372 1.98449612,1.17561067 1.98449612,1.4496124 L1.98449612,6.94914729 L0.845891473,5.81302326 C0.649049165,5.64445182 0.355624597,5.65578554 0.172371736,5.8390384 C-0.010881126,6.02229126 -0.0222148445,6.31571583 0.146356589,6.51255814 L2.48062016,8.84930233 Z" id="Path"></path>
                </g>
                <g id="noun_touch_2211263" transform="translate(205.000000, 50.000000)">
                    <g id="Group">
                        <path d="M4.83636364,16.9090909 L4.83636364,13.8909091 C3.56363636,12.7272727 2.76363636,11.0181818 2.76363636,9.12727273 C2.76363636,5.56363636 5.67272727,2.65454545 9.23636364,2.65454545 C12.8,2.65454545 15.7090909,5.56363636 15.7090909,9.12727273 C15.7090909,10.9818182 14.9090909,12.6909091 13.6363636,13.8545455 L13.6363636,14.5454545 C14.4,14.6181818 15.1272727,14.8727273 15.7454545,15.2727273 C17.2363636,13.6727273 18.1818182,11.5272727 18.1818182,9.12727273 C18.2181818,4.18181818 14.1818182,0.181818182 9.27272727,0.181818182 C4.32727273,0.181818182 0.327272727,4.18181818 0.327272727,9.12727273 C0.327272727,12.4363636 2.14545455,15.3454545 4.83636364,16.9090909 Z" id="Path" fill="#FFFFFF"></path>
                        <path d="M23.6727273,21.3818182 C23.6727273,20.1818182 22.6909091,19.2 21.4545455,19.2 C20.6545455,19.2 19.9636364,19.6 19.6,20.2545455 L19.6,20.1818182 C19.6,18.9818182 18.6181818,17.9636364 17.3818182,17.9636364 C16.5818182,17.9636364 15.8909091,18.3636364 15.5272727,18.9818182 L15.5272727,18.9454545 C15.5272727,17.7454545 14.5454545,16.7272727 13.3090909,16.7272727 C12.5090909,16.7272727 11.8181818,17.1272727 11.4545455,17.7454545 L11.4545455,10.3636364 C11.4545455,9.78181818 11.2363636,9.2 10.8,8.8 C10.4,8.4 9.81818182,8.14545455 9.23636364,8.14545455 C9.23636364,8.14545455 9.23636364,8.14545455 9.23636364,8.14545455 C8.03636364,8.14545455 7.05454545,9.12727273 7.05454545,10.3636364 L7.05454545,24 C7.05454545,24.1454545 6.98181818,24.2181818 6.87272727,24.2909091 C6.76363636,24.3272727 6.61818182,24.3272727 6.54545455,24.2181818 L4.29090909,22 C3.52727273,21.2363636 2.36363636,21.1272727 1.45454545,21.7454545 C0.945454545,22.1090909 0.581818182,22.6545455 0.509090909,23.2727273 C0.436363636,23.8909091 0.581818182,24.5454545 1.01818182,25.0181818 L6.58181818,31.7454545 C8.14545455,33.6727273 10.4727273,34.7636364 12.9454545,34.7636364 L16.4,34.7636364 C18.3272727,34.7636364 20.1818182,34 21.5272727,32.6181818 C22.9090909,31.2363636 23.6727273,29.4181818 23.6727273,27.4909091 L23.6727273,21.3818182 Z" id="Path" stroke="#FFFFFF" fill="#4E5378"></path>
                    </g>
                </g>
                <path d="M252,38 L252,38 C256.418278,38 260,41.581722 260,46 L260,55 C260,55.5522847 259.552285,56 259,56 L257.034368,56 L257.034368,60.2805034 C257.034368,60.8327882 256.586653,61.2805034 256.034368,61.2805034 L255.041726,61.2805034 C254.489441,61.2805034 254.041726,60.8327882 254.041726,60.2805034 L254.041726,56 L249.988502,56 L249.988502,60.2805034 C249.988502,60.8327882 249.540787,61.2805034 248.988502,61.2805034 L248.153102,61.2805034 C247.600817,61.2805034 247.153102,60.8327882 247.153102,60.2805034 L247.153102,56 L245,56 C244.447715,56 244,55.5522847 244,55 L244,46 C244,41.581722 247.581722,38 252,38 Z" id="Rectangle" fill="#D8D8D8" opacity="0.2"></path>
                <circle id="Oval" stroke="#FFFFFF" cx="252" cy="47" r="4"></circle>
                <circle id="Oval" fill="#FFFFFF" cx="252" cy="47" r="3"></circle>
                <path d="M221.837189,58.2148206 L248,48.6625341" id="Path-2" stroke="#FFFFFF" stroke-linecap="round" stroke-dasharray="2,2"></path>
                <polygon id="Path-7" fill="#4E5378" points="266.491792 160.182953 277.631526 163.123187 283.283805 161.219892 285.547788 159.215143 289.856366 151.898321 288.813186 149 281.690151 141.666228 279.626354 140.600806 278.174079 141.145679 277.631526 142.750374 275.763436 142.145173 274.325643 142.434812 273.40744 144.326425 270.867099 144.326425 269.80678 146.620493 265.996045 143.003848 263.608525 143.223717 262.926994 145 274 156.559746 274 157.561645 273.002122 157.7181 269.720469 157 267.328593 157.7181 266.169389 159.107938"></polygon>
                <path d="M284.451357,160.954317 C288.017902,156.780167 289.909029,153.891733 290.124739,152.289017 C290.381698,150.934256 289.890055,149.522533 288.649811,148.053848 L287.969574,148.742081 C289.262423,150.268603 289.589229,151.746282 288.949993,153.175117 C286.397388,157.097665 284.66305,159.462164 283.746978,160.268614 L284.451357,160.954317 Z" id="Path-6" fill="#FFFFFF"></path>
                <path d="M287.077519,146.414884 L281.466357,140.80124 C280.801977,140.132296 279.815815,139.897804 278.921442,140.196104 C278.027069,140.494403 277.37911,141.273923 277.249302,142.207752 C276.557676,141.525898 275.531748,141.310387 274.624221,141.656315 C273.716693,142.002243 273.094523,142.84597 273.032248,143.815194 C272.322805,143.488954 271.501158,143.515805 270.814529,143.887669 C270.127899,144.259532 269.656444,144.932996 269.542016,145.705426 L266.731473,142.907287 C266.245261,142.423633 265.581283,142.161631 264.895814,142.182946 C264.208423,142.202961 263.560768,142.509698 263.109767,143.028837 C262.252308,144.038484 262.322758,145.539594 263.271008,146.464496 L273.620155,156.823566 C273.698772,156.902068 273.715605,157.02327 273.661356,157.120225 C273.607107,157.217181 273.495008,157.266242 273.386977,157.24031 L270.891473,156.635039 C269.039605,156.137908 267.074161,156.847844 265.967442,158.413643 C265.685934,158.836798 265.625892,159.369782 265.806202,159.844961 C265.960977,160.285546 266.321282,160.622696 266.771163,160.747907 L275.019225,163.030078 C275.857724,163.252378 276.721683,163.364126 277.589147,163.362481 C280.054729,163.351578 282.447328,162.524679 284.393488,161.010853 C284.533071,160.901402 284.60366,160.725799 284.578664,160.550191 C284.553669,160.374584 284.436886,160.225651 284.272308,160.159494 C284.107729,160.093337 283.920358,160.120007 283.780775,160.229457 C281.372093,162.127132 278.112558,162.821705 275.284651,162.077519 L267.036589,159.795349 C266.895723,159.751898 266.784726,159.642752 266.738915,159.502636 C266.671638,159.328198 266.690962,159.132204 266.791008,158.974264 C267.660099,157.753849 269.197673,157.204362 270.643411,157.597519 L273.15876,158.205271 C273.699646,158.33979 274.263835,158.096991 274.537994,157.611718 C274.812153,157.126445 274.728942,156.517892 274.334574,156.124031 L263.973023,145.76 C263.395079,145.204853 263.344191,144.297531 263.856434,143.68124 C264.127762,143.37113 264.515509,143.187379 264.927336,143.173745 C265.339163,143.160112 265.738214,143.317816 266.029457,143.609302 L274.098915,151.676279 C274.292771,151.870135 274.607074,151.870135 274.80093,151.676279 C274.994786,151.482423 274.994786,151.16812 274.80093,150.974264 L270.941085,147.116899 C270.359517,146.535331 270.359517,145.592421 270.941085,145.010853 C271.522654,144.429284 272.465563,144.429284 273.047132,145.010853 L273.746667,145.705426 L276.904496,148.870698 C277.098352,149.064554 277.412655,149.064554 277.606512,148.870698 C277.800368,148.676841 277.800368,148.362538 277.606512,148.168682 L274.448682,145.010853 C273.875829,144.42793 273.880181,143.492134 274.458431,142.914565 C275.036681,142.336996 275.972482,142.333747 276.554729,142.907287 L280.412093,146.764651 C280.605949,146.958507 280.920252,146.958507 281.114109,146.764651 C281.307965,146.570795 281.307965,146.256492 281.114109,146.062636 L278.658295,143.606822 C278.076726,143.025253 278.076726,142.082344 278.658295,141.500775 C279.239863,140.919207 280.182772,140.919207 280.764341,141.500775 L286.377984,147.114419 C286.978295,147.714729 287.459535,148.213333 287.891163,148.684651 C288.011248,148.815372 288.19195,148.872097 288.3652,148.83346 C288.53845,148.794824 288.677928,148.666694 288.731092,148.497336 C288.784256,148.327979 288.743031,148.143124 288.622946,148.012403 C288.178915,147.533643 287.690233,147.025116 287.077519,146.414884 Z" id="Path" fill="#FFFFFF"></path>
            </g>
        </g>
    </g>
</svg>
